# xmcd
# 
# Track frame offsets:
#     150
#     21179
#     47950
#     62607
#     80445
#     106508
#     129755
#     160867
#     190089
#     214524
#     230778
#     264960
#     291315
#     320850
# 
# Disc length: 4688
# 
# Revision: 1
# Processed by: cddbd v1.5.2PL0 Copyright (c) Steve Scherf et al.
# Submitted via: BonkEnc v1.0
# 
DISCID=be124e0e
DTITLE=Cláudio Claro - O Alfa e o Ômega
DYEAR=2004
DGENRE=Gospel
TTITLE0=Bendito seja o nome de El Shadai
TTITLE1=Venha
TTITLE2=Glória e honra ao Leão de Judá
TTITLE3=Cristo em meu país
TTITLE4=A casa é tua
TTITLE5=Em cheiro suave
TTITLE6=Resplandecer iluminar
TTITLE7=Santo santo nosso Deus
TTITLE8=Senhor das batalhas
TTITLE9=A virgem cantará
TTITLE10=Jeova Sabaô
TTITLE11=Quebranta meu coração Jesus
TTITLE12=Ele vem sobre as nuvens
TTITLE13=O Alfa e o Ômega
EXTD=YEAR: 2004
EXTT0=
EXTT1=
EXTT2=
EXTT3=
EXTT4=
EXTT5=
EXTT6=
EXTT7=
EXTT8=
EXTT9=
EXTT10=
EXTT11=
EXTT12=
EXTT13=
PLAYORDER=
